<?xml version="1.0" encoding="UTF-8"?>
<svg width="66px" height="66px" viewBox="0 0 66 66" version="1.1" xmlns="http://www.w3.org/2000/svg" xmlns:xlink="http://www.w3.org/1999/xlink">
    <!-- Generator: Sketch 44.1 (41455) - http://www.bohemiancoding.com/sketch -->
    <title>Online_Plus_66px</title>
    <desc>Created with Sketch.</desc>
    <defs>
        <polygon id="path-1" points="0 65.94 0 0 66 0 66 65.94"></polygon>
    </defs>
    <g id="Page-1" stroke="none" stroke-width="1" fill="none" fill-rule="evenodd">
        <g id="Online_Plus_66px">
            <mask id="mask-2" fill="white">
                <use xlink:href="#path-1"></use>
            </mask>
            <g id="Clip-2"></g>
            <path d="M64.891,31.891 L34.109,31.891 L34.109,1.109 C34.109,0.496 33.613,0 33,0 C32.387,0 31.891,0.496 31.891,1.109 L31.891,31.891 L1.109,31.891 C0.496,31.891 0,32.387 0,33 C0,33.613 0.496,34.109 1.109,34.109 L31.891,34.109 L31.891,64.891 C31.891,65.504 32.387,66 33,66 C33.613,66 34.109,65.504 34.109,64.891 L34.109,34.109 L64.891,34.109 C65.504,34.109 66,33.613 66,33 C66,32.387 65.504,31.891 64.891,31.891" id="Fill-1" fill="#494C4A" mask="url(#mask-2)"></path>
        </g>
    </g>
</svg>