<svg xmlns="http://www.w3.org/2000/svg" width="163" height="163" fill="none">
    <path fill="#D3EFF8" d="M162.5 81.5a81 81 0 1 1-162 0 81 81 0 0 1 162 0Z" />
    <path fill="#0B1E40"
        d="M106.3 29.4c7.7 0 12.6 5.6 16.5 12.7 0 0 5.7 8.6 5.7 12.6v8.7H36.7v-8.7c0-3.6 6.3-12.6 6.3-12.6 3.4-7.2 8.7-12.7 16.5-12.7h46.8Z" />
    <path fill="#D8E3F4" d="M40.3 63.4h84.6v-8.7S107.5 41 82.2 41c-25.3 0-42 13.7-42 13.7v8.7Z" />
    <path fill="#D3EFF8"
        d="m68.5 63.4 16.7-22.3c3.4.1 6.6.5 9.7 1L79 63.4H68.6ZM87.2 63.4h-4.6L98 42.7l3.8 1-14.5 19.7Z" />
    <path fill="#EEF2FA"
        d="M67.8 63.4 84.5 41c3.4.1 6.7.5 9.8 1l-16 21.4H67.8ZM86.5 63.4h-4.6l15.3-20.8 3.9 1-14.6 19.8Z" />
    <path fill="#80B8EE"
        d="M36.7 54.7c0-3.6 6.3-12.6 6.3-12.6 3.4-7.2 8.7-12.7 16.5-12.7h46.8c7.7 0 12.6 5.6 16.5 12.7 0 0 5.7 8.6 5.7 12.6v-5.4c0-4-5.7-13.4-5.7-13.4-3.8-7-9-12.3-16.7-12.3H59c-7.7 0-13.5 5.2-17 12.3 0 0-5.4 9.5-5.4 13v5.8Z" />
    <path fill="#041E42"
        d="M43.7 130H32.6c-2.6 0-4.6-1.8-4.6-4V92.7c0-2.1 2-3.9 4.6-3.9h11c2.6 0 4.6 1.8 4.6 4v15.6H117V92.6c0-2.1 2-3.9 4.6-3.9h11.1c2.5 0 4.6 1.8 4.6 4V126c0 2.1-2 3.9-4.6 3.9h-11c-2.6 0-4.7-1.8-4.7-4v-8.3H48.2v8.4c0 2.1-2 3.9-4.5 3.9Z" />
    <path fill="#80B8EE" fill-rule="evenodd"
        d="m138.1 73.5-7.8-9.3c-.6-.7-1.6-.8-2.5-.8H37.3c-.8 0-1.8.1-2.4.8l-7.8 9.3c-1 1.2-2 2.3-2 3.9v30.5c0 2.6 2 4.7 4.4 4.7h106.2c2.4 0 4.4-2.1 4.4-4.7V77.4c0-1.6-1.1-2.8-2-4Z"
        clip-rule="evenodd" />
    <path fill="#80B8EE" fill-rule="evenodd"
        d="M37.3 63.4c-.8 0-1.8.1-2.4.8l-7.8 9.3c-1 1.2-2 2.3-2 3.9v30.5c0 2.6 2 4.7 4.4 4.7h106.2c2.4 0 4.4-2.1 4.4-4.7V77.4c0-1.6-1.1-2.8-2-4l-7.8-9.2c-.6-.7-1.6-.8-2.5-.8H37.3Z"
        clip-rule="evenodd" />
    <path fill="#0071DC" d="M140 104.6H25v3.3c0 2.6 2 4.7 4.5 4.7h106.2c2.4 0 4.4-2.1 4.4-4.7v-3.3Z" />
    <path fill="#EF3E23"
        d="M36.6 77.2c1.2 0 2.2.9 2.2 2V88H25.1V77.2h11.5ZM128.5 77.2c-1.2 0-2.2.9-2.2 2V88h13.8V77.2h-11.6Z" />
    <path fill="#fff" fill-rule="evenodd"
        d="M25 90.2h13.8V88H25.1v2.2ZM126.3 90.2h13.8V88h-13.8v2.2Z" clip-rule="evenodd" />
    <path fill="#0B1E40"
        d="M40.3 63.4h84.6v3l-6.9 24a8.7 8.7 0 0 1-8.3 6.3H55.5a8.7 8.7 0 0 1-8.3-6.3l-7-24v-3Z" />
    <path fill="#0071DC" fill-rule="evenodd"
        d="M91.6 69.2h8v-2.9h-8v3Zm9.4 0v-3.6l-.8-.7H91l-.8.7v3.6h-6.5V96h23.8V69.2H101Z"
        clip-rule="evenodd" />
    <path fill="#fff" fill-rule="evenodd"
        d="M97 81.7c0-.5-.1-.9-.8-.9l-.8.2.2.4.5-.2c.3 0 .4.2.4.3-.7 0-1.2.3-1.2.8 0 .4.2.7.6.7.3 0 .5-.1.6-.3 0 0 .1.4.6.2v-1.2Zm-.5.5v.1c0 .1-.2.3-.4.3-.1 0-.2-.1-.2-.3 0-.3.3-.4.6-.4v.3Zm-10.2-2 .3 1.1.1 1 .2-1 .3-1.1h.6l.2 1.2.2.9.2-1 .2-1.1h.6l-.7 2.7c-.5.1-.6 0-.7-.4l-.2-.8-.1-.8-.2.8-.3 1.2c-.5.1-.6 0-.7-.4l-.6-2.3h.6Zm4.5 1.5c0-.5-.2-.9-.8-.9l-.8.2.1.4.6-.2c.3 0 .4.2.4.3-.8 0-1.2.3-1.2.8 0 .4.2.7.6.7.3 0 .5-.1.6-.3 0 0 0 .4.5.2v-1.2Zm-.5.5v.1c0 .1-.2.3-.4.3s-.3-.1-.3-.3c0-.3.3-.4.7-.4v.3Zm.9.7h.5v-2.7h-.5v2.7Zm8.1-2.7v.6h.5v.6h-.5v.7c0 .3.1.4.3.4h.2v.4h-.4l-.4-.1-.2-.6v-2h.5Zm-1.4.7v.4c.1-.3.4-.5.6-.5v.6c-.3 0-.5.1-.5.3V83h-.6v-2h.5Zm-5.3 0v.2c.1-.1.3-.3.6-.3s.5.2.6.4l.2-.3h.4c.4 0 .7.2.7.8V83h-.6v-1.1c0-.3 0-.5-.3-.5-.2 0-.3.1-.3.2V83h-.6v-1.1c0-.3 0-.5-.3-.5-.2 0-.3.1-.3.2V83H92v-2h.5Z"
        clip-rule="evenodd" />
    <path fill="#FFC225" fill-rule="evenodd"
        d="M102.5 80.7v-1.3c0-.1 0-.2.3-.2l.3.2-.1 1.3h-.5Zm-.6.6-1.1-.5c-.1 0-.1-.3 0-.4 0-.2.2-.3.3-.2l1 .7v.3s-.1.1-.2 0Zm1.5-.4 1-.7c.1 0 .3 0 .3.2.1.1.1.3 0 .4l-1 .5-.3-.1v-.3Zm-.7 1.4c.2 0 .2 0 .3.2v1.2c0 .1 0 .2-.3.2-.1 0-.3 0-.3-.2l.1-1.2.2-.2Zm.7-.4s.1-.1.2 0l1.1.4c.1.1.1.3 0 .4 0 .2-.2.3-.3.2l-1-.7v-.3Zm-1.3 0v.3l-1 .7c-.1 0-.3 0-.3-.2-.1-.1-.1-.3 0-.4l1-.5.3.1Z"
        clip-rule="evenodd" />
    <path fill="#0071DC" fill-rule="evenodd"
        d="M65.6 69.2h8v-2.9h-8v3Zm9.4 0v-3.6l-.8-.7H65l-.9.7v3.6h-6.5V96h23.9V69.2H75Z"
        clip-rule="evenodd" />
    <path fill="#fff" fill-rule="evenodd"
        d="M71 81.7c0-.5-.2-.9-.8-.9l-.8.2.1.4.6-.2c.3 0 .4.2.4.3-.8 0-1.2.3-1.2.8 0 .4.2.7.6.7.3 0 .5-.1.6-.3 0 0 0 .4.5.2v-1.2Zm-.5.5v.1c0 .1-.2.3-.4.3s-.3-.1-.3-.3c0-.3.3-.4.7-.4v.3Zm-10.2-2a377 377 0 0 1 .4 2.1l.2-1 .3-1.1h.6l.2 1.2.2.9.1-1 .3-1.1h.6l-.7 2.7c-.5.1-.7 0-.7-.4l-.2-.8-.2-.8-.1.8-.3 1.2c-.5.1-.7 0-.7-.4l-.6-2.3h.6Zm4.5 1.5c0-.5-.2-.9-.9-.9l-.7.2v.4l.6-.2c.4 0 .4.2.4.3-.7 0-1.2.3-1.2.8 0 .4.3.7.7.7l.6-.3s0 .4.5.2v-1.2Zm-.6.5v.1l-.3.3c-.2 0-.3-.1-.3-.3 0-.3.3-.4.6-.4v.3Zm1 .7h.5v-2.7H65v2.7Zm8.1-2.7v.6h.5v.6h-.5v.7c0 .3 0 .4.3.4h.2v.4h-.4l-.5-.1-.1-.6v-2h.5Zm-1.4.7v.4c0-.3.3-.5.5-.5h.1v.6h-.1c-.2 0-.4.1-.5.3V83h-.5v-2h.5Zm-5.3 0v.2c0-.1.2-.3.6-.3.2 0 .4.2.5.4l.3-.3h.4c.3 0 .7.2.7.8V83h-.6v-1.1c0-.3-.1-.5-.3-.5l-.4.2V83h-.5v-1.1c0-.3-.1-.5-.3-.5l-.4.2V83h-.5v-2h.5Z"
        clip-rule="evenodd" />
    <path fill="#FFC225" fill-rule="evenodd"
        d="m76.5 80.7-.1-1.3c0-.1.1-.2.3-.2.2 0 .3.1.3.2v1.3h-.5Zm-.7.6-1-.5c-.2 0-.2-.3 0-.4 0-.2.2-.3.3-.2l1 .7v.3h-.3Zm1.6-.4 1-.7s.2 0 .3.2v.4l-1.1.5-.2-.1v-.3Zm-.7 1.4c.1 0 .2 0 .2.2l.1 1.2c0 .1-.1.2-.3.2-.2 0-.3 0-.3-.2l.1-1.2.2-.2Zm.7-.4s.1-.1.2 0l1 .4c.2.1.2.3.1.4 0 .2-.2.3-.3.2l-1-.7v-.3ZM76 82v.3l-1 .7c-.1 0-.3 0-.4-.2v-.4l1.1-.5.3.1Z"
        clip-rule="evenodd" />
</svg>