<svg width="40" height="40" viewBox="0 0 40 40" fill="none" xmlns="http://www.w3.org/2000/svg">
<mask id="mask0_2612_86554" style="mask-type:luminance" maskUnits="userSpaceOnUse" x="0" y="0" width="40" height="40">
<circle cx="20" cy="20" r="20" fill="white"/>
</mask>
<g mask="url(#mask0_2612_86554)">
<rect x="-0.250244" y="-1" width="41.5" height="41.5" fill="#D3EFF8"/>
<path fill-rule="evenodd" clip-rule="evenodd" d="M3.99976 22.959H34.4655V26.685H28.1415H25.2429V25.6204L16.3029 25.4874L14.9853 26.685H8.18118V24.6889H3.99976V22.959Z" fill="#041E42"/>
<path fill-rule="evenodd" clip-rule="evenodd" d="M26.356 15.5205C26.356 14.9682 26.8037 14.5205 27.356 14.5205L32.0108 14.5205L33.3995 14.5205C33.7603 14.5205 34.0906 14.7168 34.2251 15.0515C34.498 15.7306 34.9343 17.0714 35.1669 19.1324C35.2327 22.4925 35.2327 25.589 35.2327 25.589H32.4053C31.5994 23.9741 29.9498 22.9536 28.145 22.9536H26.356V15.5205Z" fill="#BABBBE"/>
<path fill-rule="evenodd" clip-rule="evenodd" d="M27.7805 16.2743C27.7805 15.6084 28.3203 15.0686 28.9862 15.0686H32.6843C33.0777 15.0686 33.4468 15.262 33.6147 15.6178C33.7471 15.8985 33.9013 16.2819 34.0301 16.7568C34.3232 17.8379 34.3559 20.8768 34.3559 20.8768L29.7531 19.233H28.2805C28.0044 19.233 27.7805 19.0091 27.7805 18.733V16.2743Z" fill="#041E42"/>
<mask id="mask1_2612_86554" style="mask-type:luminance" maskUnits="userSpaceOnUse" x="27" y="15" width="8" height="6">
<path fill-rule="evenodd" clip-rule="evenodd" d="M27.7805 15.5686C27.7805 15.2925 28.0044 15.0686 28.2805 15.0686H32.6843C33.0777 15.0686 33.4468 15.262 33.6147 15.6178C33.7471 15.8985 33.9013 16.2819 34.0301 16.7568C34.3232 17.8379 34.3559 20.8768 34.3559 20.8768L29.7531 19.233H28.2805C28.0044 19.233 27.7805 19.0091 27.7805 18.733V15.5686Z" fill="white"/>
</mask>
<g mask="url(#mask1_2612_86554)">
<rect x="27.2327" y="13.863" width="8.43835" height="1.9726" fill="#8CD1FC"/>
</g>
<ellipse cx="28.9403" cy="26.1193" rx="2.57534" ry="2.57534" fill="#002042"/>
<ellipse cx="28.9403" cy="26.1193" rx="1.69863" ry="1.69863" fill="#E8E8E8"/>
<ellipse cx="28.9404" cy="26.1194" rx="0.493151" ry="0.493152" fill="#041E42"/>
<ellipse cx="11.3808" cy="26.1193" rx="2.57534" ry="2.57534" fill="#041E42"/>
<ellipse cx="11.3805" cy="26.1208" rx="1.69863" ry="1.69863" fill="#E8E8E8"/>
<ellipse cx="11.3806" cy="26.1184" rx="0.493151" ry="0.493152" fill="#041E42"/>
<rect x="27.7805" y="19.7808" width="1.9726" height="0.657535" fill="#002042"/>
<rect x="34.0271" y="18.6848" width="0.767124" height="2.63014" fill="white"/>
<path d="M34.4656 24.9314H35.9998V25.1506C35.9998 25.9979 35.3129 26.6848 34.4656 26.6848V24.9314Z" fill="#031D43"/>
<rect x="25.2417" y="20.1084" width="1.12314" height="2.90695" fill="#002042"/>
<rect x="3.99976" y="12" width="21.8082" height="10.9589" fill="#0071DC"/>
<path fill-rule="evenodd" clip-rule="evenodd" d="M15.3807 14.1929C15.1019 14.1929 14.8806 14.3416 14.8806 14.5217L15.0527 16.3575C15.0692 16.4671 15.2126 16.5532 15.3807 16.5532C15.5528 16.5532 15.6963 16.4671 15.7168 16.3575L15.8849 14.5217C15.8849 14.3416 15.6635 14.1929 15.3807 14.1929ZM12.7528 15.6969C12.5888 15.6069 12.3428 15.7165 12.2035 15.9474C12.06 16.1783 12.0846 16.4367 12.2527 16.5267L13.9989 17.3056C14.1096 17.3409 14.2572 17.2665 14.3433 17.1256C14.4294 16.9847 14.4212 16.8242 14.331 16.7537L12.7528 15.6969ZM18.5173 16.5267C18.6813 16.4367 18.7058 16.1783 18.5665 15.9474C18.423 15.7165 18.177 15.6069 18.0131 15.6969L16.4349 16.7537C16.3447 16.8242 16.3365 16.9847 16.4226 17.1256C16.5086 17.2665 16.6562 17.3409 16.7669 17.3056L18.5173 16.5267ZM12.2527 18.8721C12.0846 18.966 12.06 19.2244 12.2035 19.4553C12.3428 19.6863 12.5888 19.7959 12.7528 19.7059L14.331 18.649C14.4212 18.5747 14.4294 18.4141 14.3433 18.2732C14.2572 18.1323 14.1096 18.058 13.9989 18.0971L12.2527 18.8721ZM16.7669 18.0971C16.6562 18.058 16.5086 18.1323 16.4226 18.2732C16.3365 18.4141 16.3447 18.5747 16.4349 18.649L18.0131 19.7059C18.177 19.7959 18.423 19.6863 18.5665 19.4553C18.7058 19.2244 18.6813 18.966 18.5173 18.8721L16.7669 18.0971ZM15.3848 18.847C15.2126 18.847 15.0692 18.9292 15.0527 19.0388L14.8806 20.8746C14.8806 21.0586 15.1019 21.2073 15.3807 21.2073C15.6635 21.2073 15.8849 21.0586 15.8849 20.8746L15.7168 19.0388C15.6963 18.9292 15.5528 18.847 15.3848 18.847Z" fill="#FFC220"/>
</g>
</svg>
