<svg xmlns="http://www.w3.org/2000/svg" width="224" height="224" fill="none"><path fill="#D3EFF8" d="M224 112a112 112 0 1 1-224 0 112 112 0 0 1 224 0Z"/><path fill="#FF7B22" d="M94.3 45h22.5c0 3 2.5 5.7 7.4 8.1 18.8 9.1 18.8 25 18.8 40.6 0 16.4-2 29-5.9 38a7.2 7.2 0 0 1-6.6 4.3H95.2a7.2 7.2 0 0 1-6.8-5A141.7 141.7 0 0 1 81 88.2c0-11.6 8-23.5 12-35 .5-2 1-4.7 1.3-8.2Z"/><path fill="#E24C00" d="M116.8 45c.1 3 2.6 5.8 7.4 8.1 18.8 9.1 18.8 25 18.8 40.6 0 16.4-2 29-5.9 38a7.2 7.2 0 0 1-6.6 4.3h-22.6v-11.3h-8.3a6.3 6.3 0 0 1-6-4.3c-2.9-8.6-4.7-18-5.4-28.1-1.2-17.8 8.1-39 19.3-39h.4v-8.2h9Z"/><path fill="#9C3" d="M117 38H94v6h23v-6Z"/><path fill="#A93900" d="M116 44H95v1h21v-1Z"/><path fill="#690" d="M117 38h-9v6h9v-6Z"/><path fill="#9C3" d="M115 27H96v11h19V27Z"/><path fill="#690" d="M115 27h-7v11h7V27Z"/><path fill="#BC3F00" d="M120.4 60.8c-6 2-9 11.4-1.5 23.8 7.6 12.4 12.7 14.3 16.8 11.7 4.7-2.1 4-12.3 0-23-4-10.6-10.4-14.1-15.3-12.5Z"/><path fill="#FF7B22" d="m136.3 75-14.8 13.6c6.2 8.8 10.5 10 14.2 7.7 4.5-2 4.1-11.3.6-21.3Z"/><path fill="#D2EFF9" fill-rule="evenodd" d="M121.4 65.5c-4.2 1.4-4.2 9.9.6 17.4 4.8 7.5 8.8 10.6 11.6 8.8 2.8-1.9 2.5-8.3-1-17-3.3-8.8-8.5-10.3-11.2-9.2Z" clip-rule="evenodd"/><path fill="#BC3F00" d="M83.3 111.1A123 123 0 0 1 81 88.2c0-7.7 3.6-15.6 7-23.4l2-4.4 52.3 49-.1 1-59 .7Z"/><path fill="#FEBC11" d="M141.2 51.8a4.3 4.3 0 0 1 3.4 6.8V60a10.2 10.2 0 1 1-6.8 0v-1.4a4.3 4.3 0 0 1 3.4-6.8Z"/><path fill="#E7A908" d="M150.9 66.3h-9.7v-7.4c.6-.8.9-2 .9-3.5 0-1.3-.3-2.5-.7-3.6a4.3 4.3 0 0 1 3.2 6.8V60a10.2 10.2 0 0 1 6.3 6.3Z"/><path fill="#F5F5F5" d="m128.3 76.1 3.5-2.1h18.9l3.3 2a6.8 6.8 0 0 1 3.2 7 130.5 130.5 0 0 0 0 26.8 6.8 6.8 0 0 1-6.8 7.6H132a6.8 6.8 0 0 1-6.8-7.6c.7-5.8 1-10.6 1-14.6s-.3-8-1-12.1a6.8 6.8 0 0 1 3.2-7Z"/><path fill="#D8D8D8" d="m141 74 .2.8c1.8 4.5 1.4 7.2.8 11-.4 2.3-.8 5-.8 8.9 0 3.6.5 6.8 1 9.7.8 5 1.4 9-1 12.9h9.2a6.8 6.8 0 0 0 6.8-7.6c-.6-4.8-.8-9.7-.8-14.6s.2-9 .8-12.2a6.8 6.8 0 0 0-3.2-7l-3.3-2H141Zm-15.5 11.8a82.7 82.7 0 0 0-.2-1.7h5.7a.8.8 0 1 1 0 1.7h-5.5Zm.5 5.1a74.8 74.8 0 0 0-.1-1.7h1.7a.8.8 0 0 1 0 1.7H126Zm.1 5.1a67.3 67.3 0 0 0 0-1.7h5a.8.8 0 1 1 0 1.7h-5Zm-.2 5.1.1-1.7h1.6a.8.8 0 0 1 0 1.7H126Zm-.4 5.1.2-1.7h5.3a.9.9 0 1 1 0 1.7h-5.5Z"/><path fill="#96D6F4" d="M154 66.2h-25.5a.8.8 0 0 0-.9.9v6.8c0 .5.4.8.9.8H154c.5 0 .8-.3.8-.8v-6.8c0-.5-.3-.9-.8-.9Z"/><path fill="#81B7D1" d="M141.2 66.2v8.5H154c.5 0 .8-.3.8-.8V67a.9.9 0 0 0-.8-.8h-12.8Z"/><path fill="#0271CE" fill-rule="evenodd" d="M61.3 89h99.4l3.3 91.6c.1 4-3 7.3-7 7.4a7.4 7.4 0 0 1-.2 0H65.2a7.1 7.1 0 0 1-7.2-7.4L61.3 89Z" clip-rule="evenodd"/><path fill="#fff" fill-rule="evenodd" d="M101.9 142.2c0-1.4-.6-2.7-2.6-2.7-1 0-2 .3-2.4.6l.4 1.2a3.3 3.3 0 0 1 1.7-.5c1 0 1.2.6 1.2 1-2.3 0-3.7.8-3.7 2.5 0 1 .7 1.9 2 1.9.7 0 1.4-.3 1.8-.8s.3 1 1.7.6l-.1-1.5v-2.3Zm-1.7 1.6v.3c-.2.4-.6.8-1.2.8-.4 0-.8-.3-.8-.8 0-.9 1-1.1 2-1.1v.8Zm-31.4-6.2A1176.1 1176.1 0 0 1 70 144l.6-3 .9-3.5h1.8l.8 3.7.5 2.8.5-2.9.8-3.6h1.7l-2.2 8.4c-1.4.3-1.9-.2-2-1.2l-.6-2.6-.5-2.6-.5 2.6-1 3.8c-1.4.3-1.9-.1-2.1-1.3l-1.7-7.1h1.8Zm13.8 4.6c0-1.4-.6-2.7-2.6-2.7-1 0-1.9.3-2.3.6l.3 1.2a3.3 3.3 0 0 1 1.7-.5c1 0 1.2.6 1.2 1-2.3 0-3.7.8-3.7 2.5 0 1 .7 1.9 2 1.9.8 0 1.4-.3 1.8-.8s.3 1 1.7.6v-3.8Zm-1.7 1.6v.3c-.1.4-.6.8-1.1.8-.5 0-.9-.3-.9-.8 0-.9 1-1.1 2-1.1v.8Zm2.8 2.2h1.7v-8.4h-1.7v8.4Zm25.3-8.4v2h1.4v1.6H109v2.4c0 .7.2 1.1.7 1.1h.7v1.3a4 4 0 0 1-1.2.2c-.6 0-1-.2-1.4-.6-.3-.3-.5-1-.5-1.8v-6.2h1.7Zm-4.5 2v1.3c.4-1 1.1-1.4 1.7-1.4h.4v1.7h-.5c-.7 0-1.2.4-1.3 1.1a2.5 2.5 0 0 0 0 .5v3.2H103v-6.3h1.5Zm-16.3 0v1c.3-.5.8-1 1.8-1 .8 0 1.5.4 1.7 1l.8-.7a2.2 2.2 0 0 1 1.3-.4c1 0 2 .8 2 2.8v3.7h-1.7v-3.5c0-1-.3-1.5-1-1.5a1 1 0 0 0-1 .7 1.8 1.8 0 0 0 0 .6v3.7h-1.7v-3.6c0-.8-.4-1.4-1-1.4s-1 .4-1 .8l-.1.5v3.7h-1.7v-6.3h1.6Z" clip-rule="evenodd"/><path fill="#FFC225" fill-rule="evenodd" d="m118.9 139-.4-3.8c0-.4.5-.7 1-.7s1 .3 1 .7l-.4 3.8c0 .2-.3.4-.6.4s-.6-.2-.6-.4Zm-2 2-3.5-1.6c-.3-.2-.3-.8 0-1.2.2-.5.7-.8 1-.6l3 2.2c.2.2.3.5 0 .8 0 .3-.4.5-.6.4Zm4.6-1.2 3-2.2c.4-.2.9 0 1.2.6.2.4.2 1-.1 1.2l-3.4 1.6c-.2 0-.5-.1-.7-.4-.2-.3-.1-.6 0-.8Zm-2 4.4c.3 0 .6.1.6.4l.4 3.8c0 .4-.5.7-1 .7s-1-.3-1-.7l.4-3.8c0-.3.3-.4.6-.4Zm2-1.2c.2-.3.5-.5.7-.4l3.4 1.6c.3.2.3.8 0 1.2-.2.5-.7.7-1 .6l-3-2.2c-.2-.2-.3-.5 0-.8Zm-4 0c.2.3.1.6 0 .8l-3 2.2c-.4.1-.9 0-1.2-.6-.2-.4-.2-1 .1-1.2l3.4-1.6c.2 0 .5 0 .7.4Z" clip-rule="evenodd"/><path fill="#0056A8" fill-rule="evenodd" d="M122.9 89.6c0 15.6-11.4 28.2-25.5 28.2-14 0-25.4-12.6-25.4-28.2V89h4v.6c0 12.9 9.6 23.3 21.4 23.3 11.8 0 21.4-10.4 21.4-23.3V89h4v.6Z" clip-rule="evenodd"/><path fill="#0271CE" fill-rule="evenodd" d="M119.3 89.5a25 25 0 0 1-25.4 24.7A25 25 0 0 1 68.4 89h4v.5C72.5 100.8 82 110 94 110A20.9 20.9 0 0 0 115.2 89h4v.5Z" clip-rule="evenodd"/><path fill="#0065B8" d="M133.5 89.2h26.8l3.3 91.7a7.1 7.1 0 0 1-7.1 7.4h-15.8a7.1 7.1 0 0 1-7.2-7.2V89.2Z"/><path fill="#0056A8" d="M160.3 90v-.8h-27.2l-2.9 91.7a7.1 7.1 0 0 0 7.1 7.4h19.4a7.1 7.1 0 0 0 3.4-1c.4-.8.3-1.7-.4-2.3l-11.2-9.4-1.2-74.7 13-10.9Z"/><path fill="#333" fill-rule="evenodd" d="M59.5 56.3c1-.6 2.4-1.1 3.3-2l1.9-2.2c.4-.5.6-1-.2-1-.7-.1-1.5.5-2 .8-.7.3-1 .7-1.5 1.2a9.7 9.7 0 0 0-1.2 1.7c-.4.5-1 1.1-.3 1.5Z" clip-rule="evenodd"/><path fill="#F9E741" d="M66.8 89h10l.6-1.8c1-3 2-6.8 1.9-10-.1-2-1.8-6.5-2.9-8.2a50.7 50.7 0 0 0-11.3-12.8l-.6-.6c-.6-.6-1.3-1.4-1.9-1.5-.8 0-2.8 1.5-2.7 2.4 0 .5 1.2 1.3 2.1 1.8l1 .6c1.1 1 1.6 1.6 2.4 3 2.7 5 4.4 10 4.4 16a27 27 0 0 1-3 11.1Z"/><path fill="#FFCD00" d="M85 89c1.5-5.6 2-11.3.7-16.5-1.9-7.9-4.8-12.3-12.8-13.8-3.6-.7-5.8-1.7-6.6-5.5L66 52c0-.8 0-.8-1.6.2-2.2 1.6-1.9 2.3-.4 4.1l4 4.5c3.3 3.5 6.5 7 8.1 12 1.7 5 1 11-.9 16.3H85Z"/></svg>