<svg xmlns="http://www.w3.org/2000/svg" width="16" height="16" fill="none">
<path fill="#000" fill-rule="evenodd" d="M1 6.5v-5c0-.41.46-.65.77-.4l3.05 2.5c.24.2.24.6 0 .8L1.77 6.9c-.31.25-.77.01-.77-.4ZM7.5 2C6.67 2 6 2.67 6 3.5v6.26l-.7-.7a1.5 1.5 0 1 0-2.12 2.12l3.23 3.23a2 2 0 0 0 1.42.59h3.67a3.5 3.5 0 0 0 3.5-3.5v-3a1.5 1.5 0 0 0-2.05-1.4 1.5 1.5 0 0 0-2-1A1.5 1.5 0 0 0 9 5.1V3.5C9 2.67 8.33 2 7.5 2Zm0 1a.5.5 0 0 0-.5.5v7.47a.5.5 0 0 1-.85.35L4.59 9.77a.5.5 0 1 0-.7.7l2.94 2.94a2 2 0 0 0 1.41.59h.59l-.02-.01h.1V14h2.55c1.4 0 2.54-1.14 2.54-2.54V8.5a.5.5 0 0 0-1 0V10a.5.5 0 0 1-1 0V7.5a.5.5 0 0 0-1 0V9a.5.5 0 0 1-1 0V6.5a.5.5 0 0 0-1 0V8a.5.5 0 0 1-1 0V3.5a.5.5 0 0 0-.5-.5Z" clip-rule="evenodd"/>
</svg>
