<?xml version="1.0" standalone="no"?>
<svg width="88px" height="90px" version="1.1" xmlns="http://www.w3.org/2000/svg">
<path fill="#ffffff" transform="scale(0.085, -0.085) translate(0, -1035)" d="M511.998,1024.497C229.939,1024.497,0,794.557,0,512.498C0,230.439,229.939,0.5,511.998,0.5C794.057,0.5,1023.997,230.439,1023.997,512.498C1025.019,794.557,795.079,1024.497,511.998,1024.497C511.998,1024.497,511.998,1024.497,511.998,1024.497M511.998,41.378C252.422,41.378,40.878,252.922,40.878,512.498C40.878,772.074,252.422,983.618,511.998,983.618C771.574,983.618,983.118,772.074,983.118,512.498C984.14,252.922,772.596,41.378,511.998,41.378C511.998,41.378,511.998,41.378,511.998,41.378M660.181,462.423C660.181,462.423,532.437,352.052,532.437,352.052C532.437,352.052,532.437,717.911,532.437,717.911C532.437,729.152,523.24,738.35,511.998,738.35C500.757,738.35,491.559,729.152,491.559,717.911C491.559,717.911,491.559,352.052,491.559,352.052C491.559,352.052,363.815,462.423,363.815,462.423C355.64,469.576,342.354,468.554,335.2,460.379C328.047,452.203,329.069,438.918,337.244,431.764C337.244,431.764,511.998,281.537,511.998,281.537C511.998,281.537,687.774,431.764,687.774,431.764C695.95,438.918,696.972,452.203,689.818,460.379C681.642,468.554,669.379,469.576,660.181,462.423C660.181,462.423,660.181,462.423,660.181,462.423" />
</svg>