<?xml version="1.0" encoding="UTF-8"?>
<svg width="27px" height="16px" viewBox="0 0 27 16" version="1.1" xmlns="http://www.w3.org/2000/svg" xmlns:xlink="http://www.w3.org/1999/xlink">
    <!-- Generator: Sketch 55.1 (78136) - https://sketchapp.com -->
    <title>icon_shipping</title>
    <desc>Created with Sketch.</desc>
    <g id="Product-Cards" stroke="none" stroke-width="1" fill="none" fill-rule="evenodd">
        <g id="icon_shipping" transform="translate(1.000000, 1.000000)" fill="#000000" fill-rule="nonzero" stroke="#000000" stroke-width="0.1">
            <path d="M1.78344598,9.27814815 L4.48744598,9.27814815 C4.60339694,9.27687819 4.71409354,9.22959528 4.79518022,9.14670266 C4.8762669,9.06381004 4.92110038,8.95209895 4.91984319,8.83614815 C4.91984319,8.59251852 4.7262608,8.39511111 4.48744598,8.39511111 L1.78440895,8.39511111 C1.5437094,8.39828291 1.35085976,8.59543723 1.35298387,8.83614815 C1.35298387,9.08074074 1.54559413,9.27911111 1.78440895,9.27911111 L1.78344598,9.27814815 Z M0.432408948,6.62711111 L5.83944598,6.62711111 C6.08052318,6.6244654 6.27395503,6.4271563 6.27183392,6.18607407 C6.27183392,5.94148148 6.0782608,5.74311111 5.83944598,5.74311111 L0.432408948,5.74311111 C0.316289095,5.74437981 0.205445024,5.79179525 0.124330606,5.87489688 C0.0432161883,5.95799851 -0.00150306842,6.06995752 9.59232693e-14,6.18607407 C9.59232693e-14,6.4297037 0.193594133,6.62711111 0.432408948,6.62711111 L0.432408948,6.62711111 Z M12.287446,11.3533333 C12.287446,12.8805926 11.0866312,14.1218519 9.60270524,14.1218519 C8.11877932,14.1218519 6.9179645,12.8805926 6.9179645,11.3523704 C6.9179645,9.82511111 8.11877932,8.58385185 9.60270524,8.58385185 C11.0866312,8.58385185 12.287446,9.82511111 12.287446,11.3523704 L12.287446,11.3533333 Z M11.4236682,11.3533333 C11.4236682,10.3104444 10.6080386,9.46785185 9.60270524,9.46785185 C8.59737191,9.46785185 7.78174228,10.3104444 7.78174228,11.3523704 C7.78174228,12.3942963 8.59737191,13.2378519 9.60270524,13.2378519 C10.6080386,13.2378519 11.4236682,12.3942963 11.4236682,11.3523704 L11.4236682,11.3533333 Z M23.8449275,11.7423704 C23.8449275,13.2705926 22.6441127,14.5118519 21.1601867,14.5118519 C19.6772238,14.5118519 18.475446,13.2705926 18.475446,11.7423704 C18.475446,10.2151111 19.6762608,8.97385185 21.1601867,8.97385185 C22.6441127,8.97385185 23.8449275,10.2151111 23.8449275,11.7423704 Z M22.9821127,11.7423704 C22.9821127,10.7014074 22.1655201,9.85785185 21.1601867,9.85785185 C20.1548534,9.85785185 19.3382608,10.7014074 19.3382608,11.7423704 C19.3382608,12.7842963 20.1548534,13.6278519 21.1601867,13.6278519 C22.1655201,13.6278519 22.9821127,12.7842963 22.9821127,11.7423704 Z" id="Shape"></path>
            <path d="M20.398483,1.10740741 C20.0090792,0.426176564 19.2861075,0.00413725239 18.501446,3.8191672e-14 L5.15092747,3.8191672e-14 C4.67714969,3.8191672e-14 4.26114969,0.308148148 4.10418673,0.758814815 C4.02360528,0.986839497 4.13993931,1.2374709 4.36611265,1.32311111 C4.59048302,1.40496296 4.8379645,1.28459259 4.91789043,1.05444444 C4.9514463,0.953873419 5.04491684,0.885508601 5.15092747,0.884 L18.501446,0.884 C18.9742608,0.884 19.4133719,1.14014815 19.6570015,1.56 L22.1250756,5.78740741 C22.1700831,5.86512227 22.238028,5.92701267 22.3195941,5.96459259 L23.8198904,6.64637037 C24.3928534,6.94296296 24.767446,7.56792593 24.767446,8.25451852 L24.767446,10.8805185 C24.767446,11.0394074 24.6422608,11.1684444 24.4930015,11.1684444 L23.3971497,11.1684444 C23.1560706,11.1716159 22.9630661,11.3693593 22.9657423,11.6104444 C22.9657423,11.8540741 23.1583349,12.0524444 23.3971497,12.0524444 L24.4930015,12.0524444 C25.1208534,12.0524444 25.6303189,11.5257037 25.6303189,10.8805185 L25.6303189,8.25355556 C25.6368554,7.24564786 25.081328,6.31803593 24.1896682,5.84807407 L22.7952978,5.21444444 L20.398483,1.10837037 L20.398483,1.10740741 Z" id="Path"></path>
            <path d="M7.19144598,11.3013333 L5.18270524,11.3013333 C5.07091091,11.2989138 4.97249212,11.2270219 4.93618673,11.1212593 C4.89760578,11.0125005 4.81679027,10.9238994 4.71202849,10.8755059 C4.60726671,10.8271125 4.48741454,10.8230177 4.37959413,10.8641481 C4.1555636,10.9539927 4.0440423,11.2060907 4.1282608,11.4322963 C4.2919645,11.8800741 4.70989043,12.1843704 5.18270524,12.1843704 L7.19144598,12.1843704 C7.43252511,12.1811989 7.62552954,11.9834555 7.62288089,11.7423704 C7.62288089,11.4987407 7.4302608,11.3013333 7.19144598,11.3013333 L7.19144598,11.3013333 Z" id="Path"></path>
            <path d="M16.1845571,0.574888889 C16.1845571,0.331259259 15.9919645,0.132888889 15.7531497,0.132888889 C15.6370298,0.134157585 15.5261858,0.181573028 15.4450713,0.264674659 C15.3639569,0.34777629 15.3192377,0.459735302 15.3207407,0.575851852 L15.3207407,5.69303704 C15.3207407,5.93762963 15.5143349,6.136 15.7531497,6.136 L22.5131497,6.136 C22.7542313,6.13230388 22.9468089,5.93412553 22.9436338,5.69303704 C22.9436338,5.44940741 22.7510015,5.252 22.5121867,5.252 L16.1845571,5.252 L16.1845571,0.574888889 Z" id="Path"></path>
            <path d="M13.6692978,12.3711852 L16.6015201,12.3711852 C16.717471,12.3699152 16.8281676,12.3226323 16.9092543,12.2397397 C16.990341,12.1568471 17.0351745,12.045136 17.0339173,11.9291852 C17.0339173,11.6855556 16.8403349,11.4871852 16.6015201,11.4871852 L13.6692978,11.4871852 C13.5533459,11.4887075 13.4427489,11.5362343 13.3618422,11.6193082 C13.2809354,11.7023821 13.2363479,11.8141965 13.2378904,11.9301481 C13.2378904,12.1737778 13.430483,12.3711852 13.6692978,12.3711852 L13.6692978,12.3711852 Z" id="Path"></path>
            <path d="M3.13640895,3.97703704 L7.64307561,3.97703704 C7.75902757,3.97551476 7.86962453,3.92798788 7.95053128,3.84491399 C8.03143803,3.7618401 8.07602555,3.65002576 8.07452175,3.53407407 C8.07452175,3.29044444 7.88092747,3.09303704 7.64211265,3.09303704 L3.13544598,3.09303704 C2.89436686,3.09620853 2.70136243,3.2939519 2.70401108,3.53503704 C2.70401108,3.77866667 2.89759413,3.97607407 3.13640895,3.97607407 L3.13640895,3.97703704 Z" id="Path"></path>
        </g>
    </g>
</svg>