<?xml version="1.0" encoding="UTF-8"?>
<svg width="20px" height="20px" viewBox="0 0 20 20" version="1.1" xmlns="http://www.w3.org/2000/svg" xmlns:xlink="http://www.w3.org/1999/xlink">
    <title>252742FF-46C7-4169-BC69-E8F10FEADADE</title>
    <g id="Page-2" stroke="none" stroke-width="1" fill="none" fill-rule="evenodd">
        <g id="PC_ArkReserve_PDP_1-Copy" transform="translate(-895.000000, -652.000000)">
            <rect fill="#FFFFFF" x="0" y="0" width="1440" height="2502"></rect>
            <g id="Desktop/Filledsimple-Copy-4" transform="translate(830.000000, 560.000000)" fill="#000000" fill-rule="nonzero">
                <g id="Group-2" transform="translate(65.000000, 10.000000)">
                    <g id="Group-7" transform="translate(0.000000, 81.000000)">
                        <g id="*Icon-/-Regular-/-Shopping-/-Coupon" transform="translate(0.000000, 1.000000)">
                            <path d="M18.9583333,3.02083333 C19.2344757,3.02083333 19.4604247,3.23573665 19.4780588,3.50742173 L19.4791667,3.54166667 L19.4791667,7.010625 C19.4791667,7.29827331 19.2459816,7.53145833 18.9583333,7.53145833 C17.8790579,7.53145833 16.9187033,8.20999945 16.6113551,9.19989585 C16.099059,10.8494024 17.2631628,12.4323688 18.8990306,12.4681323 L18.955625,12.46875 L18.9925783,12.4698578 C19.2529431,12.4867572 19.4611595,12.6949735 19.4780588,12.9553384 L19.4791667,12.9895833 L19.4791667,16.4583333 C19.4791667,16.7344757 19.2642633,16.9604247 18.9925783,16.9780588 L18.9583333,16.9791667 L1.04166667,16.9791667 C0.765524292,16.9791667 0.539575277,16.7642633 0.521941183,16.4925783 L0.520833333,16.4583333 L0.520833333,3.54166667 C0.520833333,3.26552429 0.735736653,3.03957528 1.00742173,3.02194118 L1.04166667,3.02083333 L18.9583333,3.02083333 Z M18.4374375,4.06229167 L6.770625,4.06229167 L6.77077083,5.41675 L5.72910417,5.41675 L5.72895833,4.06229167 L1.5624375,4.06229167 L1.5624375,15.937375 L5.72895833,15.937375 L5.72910417,14.79175 L6.77077083,14.79175 L6.770625,15.937375 L18.4374375,15.937375 L18.4374375,13.473 L18.4019426,13.4678321 C16.3788279,13.1525113 15.0062949,11.1342138 15.5767874,9.02777865 L15.5954503,8.96123223 L15.6165489,8.89097837 C15.9960507,7.66869203 17.0469589,6.78539405 18.2950342,6.55135589 L18.3672539,6.53857623 L18.4374375,6.52758333 L18.4374375,4.06229167 Z M6.77077083,11.04175 L6.77077083,12.91675 L5.72910417,12.91675 L5.72910417,11.04175 L6.77077083,11.04175 Z M6.77077083,7.29175 L6.77077083,9.16675 L5.72910417,9.16675 L5.72910417,7.29175 L6.77077083,7.29175 Z" id="Icon-/-Regular-/-Shopping-/-Coupon"></path>
                        </g>
                    </g>
                </g>
            </g>
        </g>
    </g>
</svg>