<?xml version="1.0" encoding="UTF-8"?>
<svg width="26px" height="25px" viewBox="0 0 26 25" version="1.1" xmlns="http://www.w3.org/2000/svg" xmlns:xlink="http://www.w3.org/1999/xlink">
    <title>C46D09CD-9DAB-4E4B-A587-DAF49AF3937A</title>
    <g id="Page-1" stroke="none" stroke-width="1" fill="none" fill-rule="evenodd">
        <g id="PC_TV_Group_03_ALT-Copy-8" transform="translate(-893.000000, -1626.000000)">
            <rect fill="#FFFFFF" x="0" y="0" width="1440" height="3764"></rect>
            <g id="Product_Details/TV-sizes/Single-row-Copy" transform="translate(892.499982, 1372.000000)" fill="#000000" fill-rule="nonzero">
                <g id="*Icon-/-Regular-/-Action-/-Home-Copy" transform="translate(1.000000, 254.000000)">
                    <path d="M11.9044904,1.40760334 C12.2343843,1.16483718 12.7073299,1.15428213 13.0496631,1.37593819 L13.0955096,1.40760334 L22.5720721,8.39041584 C22.8385197,8.58649241 23.0251899,8.93758597 23.0451086,9.27100278 L23.046875,9.3296224 L23.046875,22.8712891 C23.046875,23.357319 22.6649967,23.7553982 22.1853702,23.7813968 L22.1354167,23.7827474 L2.86458333,23.7827474 C2.37855343,23.7827474 1.98047416,23.4008691 1.95447558,22.9212426 L1.953125,22.8712891 L1.953125,9.3296224 C1.953125,8.99888276 2.12499249,8.64030791 2.3814789,8.42679386 L2.42760185,8.39065592 L11.9044904,1.40760334 Z M12.4997396,2.58628906 L3.25520833,9.3977474 L3.25520833,22.4805599 L8.59375,22.4805599 L8.59375,12.1942057 L16.40625,12.1942057 L16.40625,22.4805599 L21.7447917,22.4805599 L21.7447917,9.39852865 L12.4997396,2.58628906 Z M15.3645833,13.2357682 L9.63541667,13.2357682 L9.63541667,22.4805339 L15.3645833,22.4805339 L15.3645833,13.2357682 Z" id="Icon-/-Regular-/-Action-/-Home"></path>
                </g>
            </g>
        </g>
    </g>
</svg>