<?xml version="1.0" standalone="no"?>
<svg width="88px" height="90px" version="1.1" xmlns="http://www.w3.org/2000/svg">
<path fill="#ffffff" transform="scale(0.085, -0.085) translate(0, -1035)" d="M130.12,959.228C87.346,959.228,52.348,924.23,52.348,881.456C52.348,881.456,52.348,337.051,52.348,337.051C52.348,294.276,87.346,259.278,130.12,259.278C130.12,259.278,181.968,259.278,181.968,259.278C181.968,259.278,233.816,259.278,233.816,259.278C233.816,259.278,233.816,207.43,233.816,207.43C233.816,207.43,233.816,117.992,233.816,117.992C233.816,117.992,402.323,247.613,402.323,247.613C402.323,247.613,415.285,259.278,415.285,259.278C415.285,259.278,433.432,259.278,433.432,259.278C433.432,259.278,894.88,259.278,894.88,259.278C937.654,259.278,972.652,294.276,972.652,337.051C972.652,337.051,972.652,881.456,972.652,881.456C972.652,924.23,937.654,959.228,894.88,959.228C894.88,959.228,130.12,959.228,130.12,959.228M130.12,1011.076C130.12,1011.076,894.88,1011.076,894.88,1011.076C966.171,1011.076,1024.5,952.747,1024.5,881.456C1024.5,881.456,1024.5,337.051,1024.5,337.051C1024.5,265.759,966.171,207.43,894.88,207.43C894.88,207.43,433.432,207.43,433.432,207.43C433.432,207.43,181.968,13,181.968,13C181.968,13,181.968,207.43,181.968,207.43C181.968,207.43,130.12,207.43,130.12,207.43C58.829,207.43,0.5,265.759,0.5,337.051C0.5,337.051,0.5,881.456,0.5,881.456C0.5,952.747,58.829,1011.076,130.12,1011.076C130.12,1011.076,130.12,1011.076,130.12,1011.076C130.12,1011.076,130.12,1011.076,130.12,1011.076" />
</svg>